solid ascii
  facet normal 0.000000e+000 -9.881586e-001 -1.534362e-001
    outer loop
      vertex   -2.521597e+000 -4.974962e-001 -5.000318e-002
      vertex   -2.521597e+000 -4.892335e-001 -1.032168e-001
      vertex   -1.771597e+000 -4.974962e-001 -5.000318e-002
    endloop
  endfacet
  facet normal 7.721771e-003 -9.658970e-001 -2.588113e-001
    outer loop
      vertex   -1.771597e+000 -4.974962e-001 -5.000318e-002
      vertex   -2.521597e+000 -4.892335e-001 -1.032168e-001
      vertex   -2.521597e+000 -4.752958e-001 -1.552331e-001
    endloop
  endfacet
  facet normal -8.590197e-017 -9.324885e-001 -3.611996e-001
    outer loop
      vertex   -1.771597e+000 -4.558447e-001 -2.054488e-001
      vertex   -2.521597e+000 -4.752958e-001 -1.552331e-001
      vertex   -2.521597e+000 -4.558447e-001 -2.054488e-001
    endloop
  endfacet
  facet normal 7.721771e-003 -9.658970e-001 -2.588113e-001
    outer loop
      vertex   -1.771597e+000 -4.558447e-001 -2.054488e-001
      vertex   -1.771597e+000 -4.974962e-001 -5.000318e-002
      vertex   -2.521597e+000 -4.752958e-001 -1.552331e-001
    endloop
  endfacet
  facet normal 2.055442e-004 -9.659258e-001 -2.588190e-001
    outer loop
      vertex   -1.771597e+000 -4.558447e-001 -2.054488e-001
      vertex   3.478403e+000 -4.531564e-001 -2.113123e-001
      vertex   -1.771597e+000 -4.974962e-001 -5.000318e-002
    endloop
  endfacet
  facet normal -3.309430e-005 -8.974595e-001 -4.410969e-001
    outer loop
      vertex   -1.771597e+000 -4.558447e-001 -2.054488e-001
      vertex   -1.771597e+000 -4.411196e-001 -2.354086e-001
      vertex   3.478403e+000 -4.531564e-001 -2.113123e-001
    endloop
  endfacet
  facet normal 3.093273e-004 -8.660254e-001 -5.000000e-001
    outer loop
      vertex   3.478403e+000 -4.531564e-001 -2.113123e-001
      vertex   -1.771597e+000 -4.411196e-001 -2.354086e-001
      vertex   -1.771597e+000 -4.244281e-001 -2.643191e-001
    endloop
  endfacet
  facet normal 1.074674e-003 -8.307304e-001 -5.566740e-001
    outer loop
      vertex   -1.771597e+000 -4.058447e-001 -2.920513e-001
      vertex   3.478403e+000 -4.531564e-001 -2.113123e-001
      vertex   -1.771597e+000 -4.244281e-001 -2.643191e-001
    endloop
  endfacet
  facet normal 1.438954e-003 -8.191512e-001 -5.735758e-001
    outer loop
      vertex   -1.771597e+000 -4.058447e-001 -2.920513e-001
      vertex   3.478403e+000 -3.535559e-001 -3.535566e-001
      vertex   3.478403e+000 -4.531564e-001 -2.113123e-001
    endloop
  endfacet
  facet normal -1.322339e-003 -7.033583e-001 -7.108342e-001
    outer loop
      vertex   -1.771597e+000 -4.058447e-001 -2.920513e-001
      vertex   -2.521597e+000 -2.830044e-001 -4.122045e-001
      vertex   3.478403e+000 -3.535559e-001 -3.535566e-001
    endloop
  endfacet
  facet normal 5.291194e-017 -6.992445e-001 -7.148826e-001
    outer loop
      vertex   -1.771597e+000 -4.058447e-001 -2.920513e-001
      vertex   -2.521597e+000 -4.058447e-001 -2.920513e-001
      vertex   -2.521597e+000 -2.830044e-001 -4.122045e-001
    endloop
  endfacet
  facet normal 1.262481e-003 -5.735760e-001 -8.191514e-001
    outer loop
      vertex   3.478403e+000 -3.535559e-001 -3.535566e-001
      vertex   -2.521597e+000 -2.830044e-001 -4.122045e-001
      vertex   3.478403e+000 -2.113117e-001 -4.531571e-001
    endloop
  endfacet
  facet normal -1.237225e-003 -4.159252e-001 -9.093980e-001
    outer loop
      vertex   3.478403e+000 -2.113117e-001 -4.531571e-001
      vertex   -2.521597e+000 -2.830044e-001 -4.122045e-001
      vertex   -2.521597e+000 -1.267398e-001 -4.836742e-001
    endloop
  endfacet
  facet normal -1.238924e-003 -8.348313e-002 -9.965084e-001
    outer loop
      vertex   3.478403e+000 -4.358040e-002 -4.981005e-001
      vertex   -2.521597e+000 -1.267398e-001 -4.836742e-001
      vertex   -2.521597e+000 4.449326e-002 -4.980194e-001
    endloop
  endfacet
  facet normal -1.239490e-003 2.588188e-001 -9.659251e-001
    outer loop
      vertex   3.478403e+000 1.294070e-001 -4.829661e-001
      vertex   -2.521597e+000 4.449326e-002 -4.980194e-001
      vertex   -2.521597e+000 2.104711e-001 -4.535457e-001
    endloop
  endfacet
  facet normal -1.238924e-003 5.705527e-001 -8.212600e-001
    outer loop
      vertex   3.478403e+000 2.867857e-001 -4.095792e-001
      vertex   -2.521597e+000 2.104711e-001 -4.535457e-001
      vertex   -2.521597e+000 3.515907e-001 -3.555059e-001
    endloop
  endfacet
  facet normal -1.237225e-003 8.149008e-001 -5.795991e-001
    outer loop
      vertex   3.478403e+000 4.095735e-001 -2.867914e-001
      vertex   -2.521597e+000 3.515907e-001 -3.555059e-001
      vertex   -2.521597e+000 4.511849e-001 -2.154791e-001
    endloop
  endfacet
  facet normal -1.322339e-003 9.645433e-001 -2.639214e-001
    outer loop
      vertex   3.478403e+000 4.829604e-001 -1.294127e-001
      vertex   -2.521597e+000 4.511849e-001 -2.154791e-001
      vertex   -1.771597e+000 4.974912e-001 -5.000318e-002
    endloop
  endfacet
  facet normal 1.074674e-003 9.977706e-001 -6.672862e-002
    outer loop
      vertex   3.478403e+000 4.980948e-001 4.357469e-002
      vertex   -1.771597e+000 4.974912e-001 -5.000318e-002
      vertex   -1.771597e+000 4.997188e-001 -1.669465e-002
    endloop
  endfacet
  facet normal 3.093273e-004 1.000000e+000 0.000000e+000
    outer loop
      vertex   -1.771597e+000 4.997188e-001 1.668829e-002
      vertex   3.478403e+000 4.980948e-001 4.357469e-002
      vertex   -1.771597e+000 4.997188e-001 -1.669465e-002
    endloop
  endfacet
  facet normal -3.309430e-005 9.977712e-001 6.672866e-002
    outer loop
      vertex   -1.771597e+000 4.997188e-001 1.668829e-002
      vertex   -1.771597e+000 4.974912e-001 4.999682e-002
      vertex   3.478403e+000 4.980948e-001 4.357469e-002
    endloop
  endfacet
  facet normal 7.536428e-005 9.879970e-001 1.544733e-001
    outer loop
      vertex   3.478403e+000 4.980948e-001 4.357469e-002
      vertex   -1.771597e+000 4.974912e-001 4.999682e-002
      vertex   -2.521597e+000 4.892285e-001 1.032104e-001
    endloop
  endfacet
  facet normal 1.145101e-003 9.659252e-001 2.588189e-001
    outer loop
      vertex   -2.521597e+000 4.752907e-001 1.552267e-001
      vertex   3.478403e+000 4.980948e-001 4.357469e-002
      vertex   -2.521597e+000 4.892285e-001 1.032104e-001
    endloop
  endfacet
  facet normal 2.518569e-003 9.445814e-001 3.282675e-001
    outer loop
      vertex   -2.521597e+000 4.752907e-001 1.552267e-001
      vertex   -1.771597e+000 4.558397e-001 2.054424e-001
      vertex   3.478403e+000 4.980948e-001 4.357469e-002
    endloop
  endfacet
  facet normal -0.000000e+000 9.324885e-001 3.611996e-001
    outer loop
      vertex   -2.521597e+000 4.752907e-001 1.552267e-001
      vertex   -2.521597e+000 4.558397e-001 2.054424e-001
      vertex   -1.771597e+000 4.558397e-001 2.054424e-001
    endloop
  endfacet
  facet normal 0.000000e+000 9.630048e-001 -2.694842e-001
    outer loop
      vertex   -2.521597e+000 4.511849e-001 -2.154791e-001
      vertex   -2.521597e+000 4.974912e-001 -5.000318e-002
      vertex   -1.771597e+000 4.974912e-001 -5.000318e-002
    endloop
  endfacet
  facet normal -7.313843e-017 9.881586e-001 1.534362e-001
    outer loop
      vertex   -1.771597e+000 4.974912e-001 4.999682e-002
      vertex   -2.521597e+000 4.974912e-001 4.999682e-002
      vertex   -2.521597e+000 4.892285e-001 1.032104e-001
    endloop
  endfacet
  facet normal 2.055442e-004 9.659258e-001 2.588190e-001
    outer loop
      vertex   3.478403e+000 4.980948e-001 4.357469e-002
      vertex   -1.771597e+000 4.558397e-001 2.054424e-001
      vertex   3.478403e+000 4.531514e-001 2.113060e-001
    endloop
  endfacet
  facet normal -3.309430e-005 8.974595e-001 4.410969e-001
    outer loop
      vertex   3.478403e+000 4.531514e-001 2.113060e-001
      vertex   -1.771597e+000 4.558397e-001 2.054424e-001
      vertex   -1.771597e+000 4.411146e-001 2.354022e-001
    endloop
  endfacet
  facet normal 3.093273e-004 8.660254e-001 5.000000e-001
    outer loop
      vertex   -1.771597e+000 4.244231e-001 2.643127e-001
      vertex   3.478403e+000 4.531514e-001 2.113060e-001
      vertex   -1.771597e+000 4.411146e-001 2.354022e-001
    endloop
  endfacet
  facet normal 1.074674e-003 8.307304e-001 5.566740e-001
    outer loop
      vertex   -1.771597e+000 4.244231e-001 2.643127e-001
      vertex   -1.771597e+000 4.058397e-001 2.920450e-001
      vertex   3.478403e+000 4.531514e-001 2.113060e-001
    endloop
  endfacet
  facet normal 1.438954e-003 8.191512e-001 5.735758e-001
    outer loop
      vertex   3.478403e+000 4.531514e-001 2.113060e-001
      vertex   -1.771597e+000 4.058397e-001 2.920450e-001
      vertex   3.478403e+000 3.535509e-001 3.535502e-001
    endloop
  endfacet
  facet normal -1.322339e-003 7.033583e-001 7.108342e-001
    outer loop
      vertex   3.478403e+000 3.535509e-001 3.535502e-001
      vertex   -1.771597e+000 4.058397e-001 2.920450e-001
      vertex   -2.521597e+000 2.829993e-001 4.121982e-001
    endloop
  endfacet
  facet normal -1.237225e-003 4.159252e-001 9.093980e-001
    outer loop
      vertex   3.478403e+000 2.113066e-001 4.531507e-001
      vertex   -2.521597e+000 2.829993e-001 4.121982e-001
      vertex   -2.521597e+000 1.267347e-001 4.836679e-001
    endloop
  endfacet
  facet normal -1.238924e-003 8.348313e-002 9.965084e-001
    outer loop
      vertex   3.478403e+000 4.357535e-002 4.980942e-001
      vertex   -2.521597e+000 1.267347e-001 4.836679e-001
      vertex   -2.521597e+000 -4.449831e-002 4.980130e-001
    endloop
  endfacet
  facet normal -5.406068e-017 -1.745556e-001 9.846473e-001
    outer loop
      vertex   3.478403e+000 -1.294120e-001 4.829597e-001
      vertex   -2.521597e+000 -4.449831e-002 4.980130e-001
      vertex   -2.521597e+000 -1.294120e-001 4.829597e-001
    endloop
  endfacet
  facet normal -5.060274e-017 -3.411541e-001 9.400074e-001
    outer loop
      vertex   -2.521597e+000 -2.104761e-001 4.535394e-001
      vertex   3.478403e+000 -1.294120e-001 4.829597e-001
      vertex   -2.521597e+000 -1.294120e-001 4.829597e-001
    endloop
  endfacet
  facet normal 1.265878e-003 -4.226179e-001 9.063071e-001
    outer loop
      vertex   -2.521597e+000 -2.104761e-001 4.535394e-001
      vertex   3.478403e+000 -2.867907e-001 4.095728e-001
      vertex   3.478403e+000 -1.294120e-001 4.829597e-001
    endloop
  endfacet
  facet normal -1.238924e-003 -5.705527e-001 8.212600e-001
    outer loop
      vertex   -2.521597e+000 -2.104761e-001 4.535394e-001
      vertex   -2.521597e+000 -3.515957e-001 3.554996e-001
      vertex   3.478403e+000 -2.867907e-001 4.095728e-001
    endloop
  endfacet
  facet normal 1.264746e-003 -7.071062e-001 7.071062e-001
    outer loop
      vertex   3.478403e+000 -2.867907e-001 4.095728e-001
      vertex   -2.521597e+000 -3.515957e-001 3.554996e-001
      vertex   3.478403e+000 -4.095785e-001 2.867850e-001
    endloop
  endfacet
  facet normal -1.237225e-003 -8.149008e-001 5.795991e-001
    outer loop
      vertex   3.478403e+000 -4.095785e-001 2.867850e-001
      vertex   -2.521597e+000 -3.515957e-001 3.554996e-001
      vertex   -2.521597e+000 -4.511900e-001 2.154727e-001
    endloop
  endfacet
  facet normal -1.322339e-003 -9.645433e-001 2.639214e-001
    outer loop
      vertex   3.478403e+000 -4.829654e-001 1.294063e-001
      vertex   -2.521597e+000 -4.511900e-001 2.154727e-001
      vertex   -1.771597e+000 -4.974962e-001 4.999682e-002
    endloop
  endfacet
  facet normal 1.074674e-003 -9.977706e-001 6.672862e-002
    outer loop
      vertex   3.478403e+000 -4.980999e-001 -4.358105e-002
      vertex   -1.771597e+000 -4.974962e-001 4.999682e-002
      vertex   -1.771597e+000 -4.997238e-001 1.668829e-002
    endloop
  endfacet
  facet normal 3.093273e-004 -1.000000e+000 3.325720e-015
    outer loop
      vertex   -1.771597e+000 -4.997238e-001 -1.669465e-002
      vertex   3.478403e+000 -4.980999e-001 -4.358105e-002
      vertex   -1.771597e+000 -4.997238e-001 1.668829e-002
    endloop
  endfacet
  facet normal -3.309430e-005 -9.977712e-001 -6.672866e-002
    outer loop
      vertex   -1.771597e+000 -4.997238e-001 -1.669465e-002
      vertex   -1.771597e+000 -4.974962e-001 -5.000318e-002
      vertex   3.478403e+000 -4.980999e-001 -4.358105e-002
    endloop
  endfacet
  facet normal 2.055442e-004 -9.659258e-001 -2.588190e-001
    outer loop
      vertex   3.478403e+000 -4.980999e-001 -4.358105e-002
      vertex   -1.771597e+000 -4.974962e-001 -5.000318e-002
      vertex   3.478403e+000 -4.531564e-001 -2.113123e-001
    endloop
  endfacet
  facet normal -1.575784e-016 6.992445e-001 7.148826e-001
    outer loop
      vertex   -1.771597e+000 4.058397e-001 2.920450e-001
      vertex   -2.521597e+000 4.058397e-001 2.920450e-001
      vertex   -2.521597e+000 2.829993e-001 4.121982e-001
    endloop
  endfacet
  facet normal -7.127667e-017 -9.630048e-001 2.694842e-001
    outer loop
      vertex   -2.521597e+000 -4.511900e-001 2.154727e-001
      vertex   -2.521597e+000 -4.974962e-001 4.999682e-002
      vertex   -1.771597e+000 -4.974962e-001 4.999682e-002
    endloop
  endfacet
  facet normal 1.265878e-003 8.715567e-002 -9.961939e-001
    outer loop
      vertex   3.478403e+000 1.294070e-001 -4.829661e-001
      vertex   3.478403e+000 -4.358040e-002 -4.981005e-001
      vertex   -2.521597e+000 4.449326e-002 -4.980194e-001
    endloop
  endfacet
  facet normal 1.264746e-003 -2.588188e-001 -9.659251e-001
    outer loop
      vertex   3.478403e+000 -4.358040e-002 -4.981005e-001
      vertex   3.478403e+000 -2.113117e-001 -4.531571e-001
      vertex   -2.521597e+000 -1.267398e-001 -4.836742e-001
    endloop
  endfacet
  facet normal 1.438954e-003 -9.961937e-001 8.715565e-002
    outer loop
      vertex   3.478403e+000 -4.980999e-001 -4.358105e-002
      vertex   3.478403e+000 -4.829654e-001 1.294063e-001
      vertex   -1.771597e+000 -4.974962e-001 4.999682e-002
    endloop
  endfacet
  facet normal 1.262481e-003 -9.063071e-001 4.226179e-001
    outer loop
      vertex   3.478403e+000 -4.829654e-001 1.294063e-001
      vertex   3.478403e+000 -4.095785e-001 2.867850e-001
      vertex   -2.521597e+000 -4.511900e-001 2.154727e-001
    endloop
  endfacet
  facet normal 1.265878e-003 -8.715567e-002 9.961939e-001
    outer loop
      vertex   3.478403e+000 -1.294120e-001 4.829597e-001
      vertex   3.478403e+000 4.357535e-002 4.980942e-001
      vertex   -2.521597e+000 -4.449831e-002 4.980130e-001
    endloop
  endfacet
  facet normal 1.264746e-003 2.588188e-001 9.659251e-001
    outer loop
      vertex   3.478403e+000 4.357535e-002 4.980942e-001
      vertex   3.478403e+000 2.113066e-001 4.531507e-001
      vertex   -2.521597e+000 1.267347e-001 4.836679e-001
    endloop
  endfacet
  facet normal 1.262481e-003 5.735760e-001 8.191514e-001
    outer loop
      vertex   3.478403e+000 2.113066e-001 4.531507e-001
      vertex   3.478403e+000 3.535509e-001 3.535502e-001
      vertex   -2.521597e+000 2.829993e-001 4.121982e-001
    endloop
  endfacet
  facet normal 1.438954e-003 9.961937e-001 -8.715565e-002
    outer loop
      vertex   3.478403e+000 4.980948e-001 4.357469e-002
      vertex   3.478403e+000 4.829604e-001 -1.294127e-001
      vertex   -1.771597e+000 4.974912e-001 -5.000318e-002
    endloop
  endfacet
  facet normal 1.262481e-003 9.063071e-001 -4.226179e-001
    outer loop
      vertex   3.478403e+000 4.829604e-001 -1.294127e-001
      vertex   3.478403e+000 4.095735e-001 -2.867914e-001
      vertex   -2.521597e+000 4.511849e-001 -2.154791e-001
    endloop
  endfacet
  facet normal 1.264746e-003 7.071062e-001 -7.071062e-001
    outer loop
      vertex   3.478403e+000 4.095735e-001 -2.867914e-001
      vertex   3.478403e+000 2.867857e-001 -4.095792e-001
      vertex   -2.521597e+000 3.515907e-001 -3.555059e-001
    endloop
  endfacet
  facet normal 1.265878e-003 4.226179e-001 -9.063071e-001
    outer loop
      vertex   3.478403e+000 2.867857e-001 -4.095792e-001
      vertex   3.478403e+000 1.294070e-001 -4.829661e-001
      vertex   -2.521597e+000 2.104711e-001 -4.535457e-001
    endloop
  endfacet
  facet normal 1.000000e+000 0.000000e+000 0.000000e+000
    outer loop
      vertex   3.478403e+000 4.980948e-001 4.357469e-002
      vertex   3.478403e+000 4.531514e-001 2.113060e-001
      vertex   3.478403e+000 4.829604e-001 -1.294127e-001
    endloop
  endfacet
  facet normal 1.000000e+000 0.000000e+000 0.000000e+000
    outer loop
      vertex   3.478403e+000 4.829604e-001 -1.294127e-001
      vertex   3.478403e+000 4.531514e-001 2.113060e-001
      vertex   3.478403e+000 3.535509e-001 3.535502e-001
    endloop
  endfacet
  facet normal 1.000000e+000 0.000000e+000 0.000000e+000
    outer loop
      vertex   3.478403e+000 4.095735e-001 -2.867914e-001
      vertex   3.478403e+000 3.535509e-001 3.535502e-001
      vertex   3.478403e+000 2.113066e-001 4.531507e-001
    endloop
  endfacet
  facet normal 1.000000e+000 0.000000e+000 0.000000e+000
    outer loop
      vertex   3.478403e+000 2.867857e-001 -4.095792e-001
      vertex   3.478403e+000 2.113066e-001 4.531507e-001
      vertex   3.478403e+000 4.357535e-002 4.980942e-001
    endloop
  endfacet
  facet normal 1.000000e+000 0.000000e+000 0.000000e+000
    outer loop
      vertex   3.478403e+000 1.294070e-001 -4.829661e-001
      vertex   3.478403e+000 4.357535e-002 4.980942e-001
      vertex   3.478403e+000 -1.294120e-001 4.829597e-001
    endloop
  endfacet
  facet normal 1.000000e+000 0.000000e+000 0.000000e+000
    outer loop
      vertex   3.478403e+000 -4.358040e-002 -4.981005e-001
      vertex   3.478403e+000 -1.294120e-001 4.829597e-001
      vertex   3.478403e+000 -2.867907e-001 4.095728e-001
    endloop
  endfacet
  facet normal 1.000000e+000 0.000000e+000 0.000000e+000
    outer loop
      vertex   3.478403e+000 -2.113117e-001 -4.531571e-001
      vertex   3.478403e+000 -2.867907e-001 4.095728e-001
      vertex   3.478403e+000 -4.095785e-001 2.867850e-001
    endloop
  endfacet
  facet normal 1.000000e+000 0.000000e+000 0.000000e+000
    outer loop
      vertex   3.478403e+000 -3.535559e-001 -3.535566e-001
      vertex   3.478403e+000 -4.095785e-001 2.867850e-001
      vertex   3.478403e+000 -4.829654e-001 1.294063e-001
    endloop
  endfacet
  facet normal 1.000000e+000 0.000000e+000 0.000000e+000
    outer loop
      vertex   3.478403e+000 -4.531564e-001 -2.113123e-001
      vertex   3.478403e+000 -4.829654e-001 1.294063e-001
      vertex   3.478403e+000 -4.980999e-001 -4.358105e-002
    endloop
  endfacet
  facet normal 1.000000e+000 -0.000000e+000 -0.000000e+000
    outer loop
      vertex   3.478403e+000 -4.531564e-001 -2.113123e-001
      vertex   3.478403e+000 -3.535559e-001 -3.535566e-001
      vertex   3.478403e+000 -4.829654e-001 1.294063e-001
    endloop
  endfacet
  facet normal 1.000000e+000 0.000000e+000 -0.000000e+000
    outer loop
      vertex   3.478403e+000 2.867857e-001 -4.095792e-001
      vertex   3.478403e+000 4.095735e-001 -2.867914e-001
      vertex   3.478403e+000 2.113066e-001 4.531507e-001
    endloop
  endfacet
  facet normal 1.000000e+000 0.000000e+000 -0.000000e+000
    outer loop
      vertex   3.478403e+000 4.095735e-001 -2.867914e-001
      vertex   3.478403e+000 4.829604e-001 -1.294127e-001
      vertex   3.478403e+000 3.535509e-001 3.535502e-001
    endloop
  endfacet
  facet normal 1.000000e+000 -0.000000e+000 -0.000000e+000
    outer loop
      vertex   3.478403e+000 -3.535559e-001 -3.535566e-001
      vertex   3.478403e+000 -2.113117e-001 -4.531571e-001
      vertex   3.478403e+000 -4.095785e-001 2.867850e-001
    endloop
  endfacet
  facet normal 1.000000e+000 -0.000000e+000 -0.000000e+000
    outer loop
      vertex   3.478403e+000 -2.113117e-001 -4.531571e-001
      vertex   3.478403e+000 -4.358040e-002 -4.981005e-001
      vertex   3.478403e+000 -2.867907e-001 4.095728e-001
    endloop
  endfacet
  facet normal 1.000000e+000 0.000000e+000 -0.000000e+000
    outer loop
      vertex   3.478403e+000 -4.358040e-002 -4.981005e-001
      vertex   3.478403e+000 1.294070e-001 -4.829661e-001
      vertex   3.478403e+000 -1.294120e-001 4.829597e-001
    endloop
  endfacet
  facet normal 1.000000e+000 -0.000000e+000 0.000000e+000
    outer loop
      vertex   3.478403e+000 4.357535e-002 4.980942e-001
      vertex   3.478403e+000 1.294070e-001 -4.829661e-001
      vertex   3.478403e+000 2.867857e-001 -4.095792e-001
    endloop
  endfacet
  facet normal 0.000000e+000 0.000000e+000 1.000000e+000
    outer loop
      vertex   -1.771597e+000 -4.974962e-001 4.999682e-002
      vertex   -2.521597e+000 -4.974962e-001 4.999682e-002
      vertex   -1.771597e+000 -4.000003e+000 4.999682e-002
    endloop
  endfacet
  facet normal 0.000000e+000 0.000000e+000 1.000000e+000
    outer loop
      vertex   -1.771597e+000 -4.000003e+000 4.999682e-002
      vertex   -2.521597e+000 -4.974962e-001 4.999682e-002
      vertex   -2.521597e+000 -4.000003e+000 4.999682e-002
    endloop
  endfacet
  facet normal -4.958056e-018 -5.000000e-001 8.660254e-001
    outer loop
      vertex   -1.771597e+000 -4.558447e-001 -2.054488e-001
      vertex   -2.521597e+000 -4.558447e-001 -2.054488e-001
      vertex   -1.771597e+000 -3.489104e+000 -1.956702e+000
    endloop
  endfacet
  facet normal 0.000000e+000 -5.000000e-001 8.660254e-001
    outer loop
      vertex   -1.771597e+000 -3.489104e+000 -1.956702e+000
      vertex   -2.521597e+000 -4.558447e-001 -2.054488e-001
      vertex   -2.521597e+000 -3.489104e+000 -1.956702e+000
    endloop
  endfacet
  facet normal 0.000000e+000 5.000000e-001 -8.660254e-001
    outer loop
      vertex   -1.771597e+000 4.558397e-001 2.054424e-001
      vertex   -2.521597e+000 4.558397e-001 2.054424e-001
      vertex   -1.771597e+000 3.489099e+000 1.956696e+000
    endloop
  endfacet
  facet normal 0.000000e+000 5.000000e-001 -8.660254e-001
    outer loop
      vertex   -1.771597e+000 3.489099e+000 1.956696e+000
      vertex   -2.521597e+000 4.558397e-001 2.054424e-001
      vertex   -2.521597e+000 3.489099e+000 1.956696e+000
    endloop
  endfacet
  facet normal 1.000000e+000 -0.000000e+000 0.000000e+000
    outer loop
      vertex   -1.771597e+000 4.058397e-001 2.920450e-001
      vertex   -1.771597e+000 4.244231e-001 2.643127e-001
      vertex   -1.771597e+000 3.439099e+000 2.043298e+000
    endloop
  endfacet
  facet normal 1.000000e+000 0.000000e+000 0.000000e+000
    outer loop
      vertex   -1.771597e+000 3.439099e+000 2.043298e+000
      vertex   -1.771597e+000 4.244231e-001 2.643127e-001
      vertex   -1.771597e+000 4.411146e-001 2.354022e-001
    endloop
  endfacet
  facet normal 1.000000e+000 0.000000e+000 0.000000e+000
    outer loop
      vertex   -1.771597e+000 3.489099e+000 1.956696e+000
      vertex   -1.771597e+000 4.411146e-001 2.354022e-001
      vertex   -1.771597e+000 4.558397e-001 2.054424e-001
    endloop
  endfacet
  facet normal 1.000000e+000 0.000000e+000 0.000000e+000
    outer loop
      vertex   -1.771597e+000 3.489099e+000 1.956696e+000
      vertex   -1.771597e+000 3.439099e+000 2.043298e+000
      vertex   -1.771597e+000 4.411146e-001 2.354022e-001
    endloop
  endfacet
  facet normal 1.000000e+000 -0.000000e+000 0.000000e+000
    outer loop
      vertex   -1.771597e+000 4.974912e-001 4.999682e-002
      vertex   -1.771597e+000 4.997188e-001 1.668829e-002
      vertex   -1.771597e+000 3.999997e+000 4.999682e-002
    endloop
  endfacet
  facet normal 1.000000e+000 0.000000e+000 0.000000e+000
    outer loop
      vertex   -1.771597e+000 3.999997e+000 4.999682e-002
      vertex   -1.771597e+000 4.997188e-001 1.668829e-002
      vertex   -1.771597e+000 4.997188e-001 -1.669465e-002
    endloop
  endfacet
  facet normal 1.000000e+000 0.000000e+000 0.000000e+000
    outer loop
      vertex   -1.771597e+000 3.999997e+000 -5.000318e-002
      vertex   -1.771597e+000 4.997188e-001 -1.669465e-002
      vertex   -1.771597e+000 4.974912e-001 -5.000318e-002
    endloop
  endfacet
  facet normal 1.000000e+000 0.000000e+000 -0.000000e+000
    outer loop
      vertex   -1.771597e+000 3.999997e+000 -5.000318e-002
      vertex   -1.771597e+000 3.999997e+000 4.999682e-002
      vertex   -1.771597e+000 4.997188e-001 -1.669465e-002
    endloop
  endfacet
  facet normal 1.000000e+000 0.000000e+000 0.000000e+000
    outer loop
      vertex   -1.771597e+000 -4.058447e-001 -2.920513e-001
      vertex   -1.771597e+000 -4.244281e-001 -2.643191e-001
      vertex   -1.771597e+000 -3.439104e+000 -2.043304e+000
    endloop
  endfacet
  facet normal 1.000000e+000 0.000000e+000 -0.000000e+000
    outer loop
      vertex   -1.771597e+000 -3.439104e+000 -2.043304e+000
      vertex   -1.771597e+000 -4.244281e-001 -2.643191e-001
      vertex   -1.771597e+000 -4.411196e-001 -2.354086e-001
    endloop
  endfacet
  facet normal 1.000000e+000 0.000000e+000 -0.000000e+000
    outer loop
      vertex   -1.771597e+000 -3.489104e+000 -1.956702e+000
      vertex   -1.771597e+000 -4.411196e-001 -2.354086e-001
      vertex   -1.771597e+000 -4.558447e-001 -2.054488e-001
    endloop
  endfacet
  facet normal 1.000000e+000 -0.000000e+000 0.000000e+000
    outer loop
      vertex   -1.771597e+000 -3.489104e+000 -1.956702e+000
      vertex   -1.771597e+000 -3.439104e+000 -2.043304e+000
      vertex   -1.771597e+000 -4.411196e-001 -2.354086e-001
    endloop
  endfacet
  facet normal 1.000000e+000 0.000000e+000 0.000000e+000
    outer loop
      vertex   -1.771597e+000 -4.974962e-001 -5.000318e-002
      vertex   -1.771597e+000 -4.997238e-001 -1.669465e-002
      vertex   -1.771597e+000 -4.000003e+000 -5.000318e-002
    endloop
  endfacet
  facet normal 1.000000e+000 0.000000e+000 0.000000e+000
    outer loop
      vertex   -1.771597e+000 -4.000003e+000 -5.000318e-002
      vertex   -1.771597e+000 -4.997238e-001 -1.669465e-002
      vertex   -1.771597e+000 -4.997238e-001 1.668829e-002
    endloop
  endfacet
  facet normal 1.000000e+000 -0.000000e+000 0.000000e+000
    outer loop
      vertex   -1.771597e+000 -4.000003e+000 4.999682e-002
      vertex   -1.771597e+000 -4.997238e-001 1.668829e-002
      vertex   -1.771597e+000 -4.974962e-001 4.999682e-002
    endloop
  endfacet
  facet normal 1.000000e+000 -0.000000e+000 0.000000e+000
    outer loop
      vertex   -1.771597e+000 -4.000003e+000 4.999682e-002
      vertex   -1.771597e+000 -4.000003e+000 -5.000318e-002
      vertex   -1.771597e+000 -4.997238e-001 1.668829e-002
    endloop
  endfacet
  facet normal 0.000000e+000 0.000000e+000 -1.000000e+000
    outer loop
      vertex   -1.771597e+000 4.974912e-001 -5.000318e-002
      vertex   -2.521597e+000 4.974912e-001 -5.000318e-002
      vertex   -1.771597e+000 3.999997e+000 -5.000318e-002
    endloop
  endfacet
  facet normal -0.000000e+000 0.000000e+000 -1.000000e+000
    outer loop
      vertex   -1.771597e+000 3.999997e+000 -5.000318e-002
      vertex   -2.521597e+000 4.974912e-001 -5.000318e-002
      vertex   -2.521597e+000 3.999997e+000 -5.000318e-002
    endloop
  endfacet
  facet normal -9.119008e-017 -5.000000e-001 8.660254e-001
    outer loop
      vertex   -2.521597e+000 4.058397e-001 2.920450e-001
      vertex   -1.771597e+000 4.058397e-001 2.920450e-001
      vertex   -2.521597e+000 3.439099e+000 2.043298e+000
    endloop
  endfacet
  facet normal 0.000000e+000 -5.000000e-001 8.660254e-001
    outer loop
      vertex   -2.521597e+000 3.439099e+000 2.043298e+000
      vertex   -1.771597e+000 4.058397e-001 2.920450e-001
      vertex   -1.771597e+000 3.439099e+000 2.043298e+000
    endloop
  endfacet
  facet normal 6.409876e-017 5.000000e-001 -8.660254e-001
    outer loop
      vertex   -2.521597e+000 -4.058447e-001 -2.920513e-001
      vertex   -1.771597e+000 -4.058447e-001 -2.920513e-001
      vertex   -2.521597e+000 -3.439104e+000 -2.043304e+000
    endloop
  endfacet
  facet normal 0.000000e+000 5.000000e-001 -8.660254e-001
    outer loop
      vertex   -2.521597e+000 -3.439104e+000 -2.043304e+000
      vertex   -1.771597e+000 -4.058447e-001 -2.920513e-001
      vertex   -1.771597e+000 -3.439104e+000 -2.043304e+000
    endloop
  endfacet
  facet normal 0.000000e+000 -8.660254e-001 -5.000000e-001
    outer loop
      vertex   -2.521597e+000 -3.489104e+000 -1.956702e+000
      vertex   -2.521597e+000 -3.439104e+000 -2.043304e+000
      vertex   -1.771597e+000 -3.489104e+000 -1.956702e+000
    endloop
  endfacet
  facet normal 0.000000e+000 -8.660254e-001 -5.000000e-001
    outer loop
      vertex   -1.771597e+000 -3.489104e+000 -1.956702e+000
      vertex   -2.521597e+000 -3.439104e+000 -2.043304e+000
      vertex   -1.771597e+000 -3.439104e+000 -2.043304e+000
    endloop
  endfacet
  facet normal 0.000000e+000 8.660254e-001 5.000000e-001
    outer loop
      vertex   -1.771597e+000 3.439099e+000 2.043298e+000
      vertex   -1.771597e+000 3.489099e+000 1.956696e+000
      vertex   -2.521597e+000 3.439099e+000 2.043298e+000
    endloop
  endfacet
  facet normal 0.000000e+000 8.660254e-001 5.000000e-001
    outer loop
      vertex   -2.521597e+000 3.439099e+000 2.043298e+000
      vertex   -1.771597e+000 3.489099e+000 1.956696e+000
      vertex   -2.521597e+000 3.489099e+000 1.956696e+000
    endloop
  endfacet
  facet normal -1.000000e+000 0.000000e+000 0.000000e+000
    outer loop
      vertex   -2.521597e+000 -4.000003e+000 -5.000318e-002
      vertex   -2.521597e+000 -4.000003e+000 4.999682e-002
      vertex   -2.521597e+000 -4.974962e-001 -5.000318e-002
    endloop
  endfacet
  facet normal -1.000000e+000 0.000000e+000 0.000000e+000
    outer loop
      vertex   -2.521597e+000 -4.974962e-001 -5.000318e-002
      vertex   -2.521597e+000 -4.000003e+000 4.999682e-002
      vertex   -2.521597e+000 -4.974962e-001 4.999682e-002
    endloop
  endfacet
  facet normal -1.000000e+000 0.000000e+000 0.000000e+000
    outer loop
      vertex   -2.521597e+000 -4.892335e-001 -1.032168e-001
      vertex   -2.521597e+000 -4.974962e-001 4.999682e-002
      vertex   -2.521597e+000 -4.752958e-001 -1.552331e-001
    endloop
  endfacet
  facet normal -1.000000e+000 0.000000e+000 0.000000e+000
    outer loop
      vertex   -2.521597e+000 -4.892335e-001 -1.032168e-001
      vertex   -2.521597e+000 -4.974962e-001 -5.000318e-002
      vertex   -2.521597e+000 -4.974962e-001 4.999682e-002
    endloop
  endfacet
  facet normal -1.000000e+000 0.000000e+000 0.000000e+000
    outer loop
      vertex   -2.521597e+000 -4.752958e-001 -1.552331e-001
      vertex   -2.521597e+000 -4.974962e-001 4.999682e-002
      vertex   -2.521597e+000 -4.558447e-001 -2.054488e-001
    endloop
  endfacet
  facet normal -1.000000e+000 0.000000e+000 0.000000e+000
    outer loop
      vertex   -2.521597e+000 -4.558447e-001 -2.054488e-001
      vertex   -2.521597e+000 -4.974962e-001 4.999682e-002
      vertex   -2.521597e+000 -4.511900e-001 2.154727e-001
    endloop
  endfacet
  facet normal -1.000000e+000 0.000000e+000 0.000000e+000
    outer loop
      vertex   -2.521597e+000 -4.058447e-001 -2.920513e-001
      vertex   -2.521597e+000 -4.511900e-001 2.154727e-001
      vertex   -2.521597e+000 -3.515957e-001 3.554996e-001
    endloop
  endfacet
  facet normal -1.000000e+000 0.000000e+000 0.000000e+000
    outer loop
      vertex   -2.521597e+000 -2.830044e-001 -4.122045e-001
      vertex   -2.521597e+000 -3.515957e-001 3.554996e-001
      vertex   -2.521597e+000 -2.104761e-001 4.535394e-001
    endloop
  endfacet
  facet normal -1.000000e+000 -0.000000e+000 0.000000e+000
    outer loop
      vertex   -2.521597e+000 -1.294120e-001 4.829597e-001
      vertex   -2.521597e+000 -2.830044e-001 -4.122045e-001
      vertex   -2.521597e+000 -2.104761e-001 4.535394e-001
    endloop
  endfacet
  facet normal -1.000000e+000 -0.000000e+000 -0.000000e+000
    outer loop
      vertex   -2.521597e+000 -1.294120e-001 4.829597e-001
      vertex   -2.521597e+000 -1.267398e-001 -4.836742e-001
      vertex   -2.521597e+000 -2.830044e-001 -4.122045e-001
    endloop
  endfacet
  facet normal -1.000000e+000 0.000000e+000 -0.000000e+000
    outer loop
      vertex   -2.521597e+000 -1.294120e-001 4.829597e-001
      vertex   -2.521597e+000 -4.449831e-002 4.980130e-001
      vertex   -2.521597e+000 -1.267398e-001 -4.836742e-001
    endloop
  endfacet
  facet normal -1.000000e+000 0.000000e+000 0.000000e+000
    outer loop
      vertex   -2.521597e+000 -1.267398e-001 -4.836742e-001
      vertex   -2.521597e+000 -4.449831e-002 4.980130e-001
      vertex   -2.521597e+000 4.449326e-002 -4.980194e-001
    endloop
  endfacet
  facet normal -1.000000e+000 0.000000e+000 0.000000e+000
    outer loop
      vertex   -2.521597e+000 4.449326e-002 -4.980194e-001
      vertex   -2.521597e+000 -4.449831e-002 4.980130e-001
      vertex   -2.521597e+000 1.267347e-001 4.836679e-001
    endloop
  endfacet
  facet normal -1.000000e+000 0.000000e+000 0.000000e+000
    outer loop
      vertex   -2.521597e+000 2.104711e-001 -4.535457e-001
      vertex   -2.521597e+000 1.267347e-001 4.836679e-001
      vertex   -2.521597e+000 2.829993e-001 4.121982e-001
    endloop
  endfacet
  facet normal -1.000000e+000 0.000000e+000 0.000000e+000
    outer loop
      vertex   -2.521597e+000 3.515907e-001 -3.555059e-001
      vertex   -2.521597e+000 2.829993e-001 4.121982e-001
      vertex   -2.521597e+000 4.058397e-001 2.920450e-001
    endloop
  endfacet
  facet normal -1.000000e+000 0.000000e+000 0.000000e+000
    outer loop
      vertex   -2.521597e+000 4.511849e-001 -2.154791e-001
      vertex   -2.521597e+000 4.058397e-001 2.920450e-001
      vertex   -2.521597e+000 4.558397e-001 2.054424e-001
    endloop
  endfacet
  facet normal -1.000000e+000 -0.000000e+000 0.000000e+000
    outer loop
      vertex   -2.521597e+000 4.752907e-001 1.552267e-001
      vertex   -2.521597e+000 4.511849e-001 -2.154791e-001
      vertex   -2.521597e+000 4.558397e-001 2.054424e-001
    endloop
  endfacet
  facet normal -1.000000e+000 0.000000e+000 -0.000000e+000
    outer loop
      vertex   -2.521597e+000 4.752907e-001 1.552267e-001
      vertex   -2.521597e+000 4.892285e-001 1.032104e-001
      vertex   -2.521597e+000 4.511849e-001 -2.154791e-001
    endloop
  endfacet
  facet normal -1.000000e+000 0.000000e+000 0.000000e+000
    outer loop
      vertex   -2.521597e+000 4.511849e-001 -2.154791e-001
      vertex   -2.521597e+000 4.892285e-001 1.032104e-001
      vertex   -2.521597e+000 4.974912e-001 -5.000318e-002
    endloop
  endfacet
  facet normal -1.000000e+000 0.000000e+000 0.000000e+000
    outer loop
      vertex   -2.521597e+000 4.974912e-001 -5.000318e-002
      vertex   -2.521597e+000 4.892285e-001 1.032104e-001
      vertex   -2.521597e+000 4.974912e-001 4.999682e-002
    endloop
  endfacet
  facet normal -1.000000e+000 0.000000e+000 0.000000e+000
    outer loop
      vertex   -2.521597e+000 3.999997e+000 -5.000318e-002
      vertex   -2.521597e+000 4.974912e-001 4.999682e-002
      vertex   -2.521597e+000 3.999997e+000 4.999682e-002
    endloop
  endfacet
  facet normal -1.000000e+000 0.000000e+000 0.000000e+000
    outer loop
      vertex   -2.521597e+000 3.999997e+000 -5.000318e-002
      vertex   -2.521597e+000 4.974912e-001 -5.000318e-002
      vertex   -2.521597e+000 4.974912e-001 4.999682e-002
    endloop
  endfacet
  facet normal -1.000000e+000 0.000000e+000 -0.000000e+000
    outer loop
      vertex   -2.521597e+000 4.058397e-001 2.920450e-001
      vertex   -2.521597e+000 3.439099e+000 2.043298e+000
      vertex   -2.521597e+000 4.558397e-001 2.054424e-001
    endloop
  endfacet
  facet normal -1.000000e+000 0.000000e+000 0.000000e+000
    outer loop
      vertex   -2.521597e+000 4.558397e-001 2.054424e-001
      vertex   -2.521597e+000 3.439099e+000 2.043298e+000
      vertex   -2.521597e+000 3.489099e+000 1.956696e+000
    endloop
  endfacet
  facet normal -1.000000e+000 -0.000000e+000 0.000000e+000
    outer loop
      vertex   -2.521597e+000 4.511849e-001 -2.154791e-001
      vertex   -2.521597e+000 3.515907e-001 -3.555059e-001
      vertex   -2.521597e+000 4.058397e-001 2.920450e-001
    endloop
  endfacet
  facet normal -1.000000e+000 -0.000000e+000 0.000000e+000
    outer loop
      vertex   -2.521597e+000 3.515907e-001 -3.555059e-001
      vertex   -2.521597e+000 2.104711e-001 -4.535457e-001
      vertex   -2.521597e+000 2.829993e-001 4.121982e-001
    endloop
  endfacet
  facet normal -1.000000e+000 -0.000000e+000 0.000000e+000
    outer loop
      vertex   -2.521597e+000 2.104711e-001 -4.535457e-001
      vertex   -2.521597e+000 4.449326e-002 -4.980194e-001
      vertex   -2.521597e+000 1.267347e-001 4.836679e-001
    endloop
  endfacet
  facet normal -1.000000e+000 0.000000e+000 0.000000e+000
    outer loop
      vertex   -2.521597e+000 -2.830044e-001 -4.122045e-001
      vertex   -2.521597e+000 -4.058447e-001 -2.920513e-001
      vertex   -2.521597e+000 -3.515957e-001 3.554996e-001
    endloop
  endfacet
  facet normal -1.000000e+000 -0.000000e+000 -0.000000e+000
    outer loop
      vertex   -2.521597e+000 -4.511900e-001 2.154727e-001
      vertex   -2.521597e+000 -4.058447e-001 -2.920513e-001
      vertex   -2.521597e+000 -4.558447e-001 -2.054488e-001
    endloop
  endfacet
  facet normal -1.000000e+000 0.000000e+000 -0.000000e+000
    outer loop
      vertex   -2.521597e+000 -4.558447e-001 -2.054488e-001
      vertex   -2.521597e+000 -4.058447e-001 -2.920513e-001
      vertex   -2.521597e+000 -3.439104e+000 -2.043304e+000
    endloop
  endfacet
  facet normal -1.000000e+000 0.000000e+000 -0.000000e+000
    outer loop
      vertex   -2.521597e+000 -3.489104e+000 -1.956702e+000
      vertex   -2.521597e+000 -4.558447e-001 -2.054488e-001
      vertex   -2.521597e+000 -3.439104e+000 -2.043304e+000
    endloop
  endfacet
  facet normal 0.000000e+000 -0.000000e+000 1.000000e+000
    outer loop
      vertex   -2.521597e+000 4.974912e-001 4.999682e-002
      vertex   -1.771597e+000 4.974912e-001 4.999682e-002
      vertex   -2.521597e+000 3.999997e+000 4.999682e-002
    endloop
  endfacet
  facet normal -0.000000e+000 0.000000e+000 1.000000e+000
    outer loop
      vertex   -2.521597e+000 3.999997e+000 4.999682e-002
      vertex   -1.771597e+000 4.974912e-001 4.999682e-002
      vertex   -1.771597e+000 3.999997e+000 4.999682e-002
    endloop
  endfacet
  facet normal 0.000000e+000 -0.000000e+000 -1.000000e+000
    outer loop
      vertex   -2.521597e+000 -4.974962e-001 -5.000318e-002
      vertex   -1.771597e+000 -4.974962e-001 -5.000318e-002
      vertex   -2.521597e+000 -4.000003e+000 -5.000318e-002
    endloop
  endfacet
  facet normal 0.000000e+000 0.000000e+000 -1.000000e+000
    outer loop
      vertex   -2.521597e+000 -4.000003e+000 -5.000318e-002
      vertex   -1.771597e+000 -4.974962e-001 -5.000318e-002
      vertex   -1.771597e+000 -4.000003e+000 -5.000318e-002
    endloop
  endfacet
  facet normal 0.000000e+000 -1.000000e+000 0.000000e+000
    outer loop
      vertex   -2.521597e+000 -4.000003e+000 4.999682e-002
      vertex   -2.521597e+000 -4.000003e+000 -5.000318e-002
      vertex   -1.771597e+000 -4.000003e+000 4.999682e-002
    endloop
  endfacet
  facet normal 0.000000e+000 -1.000000e+000 -0.000000e+000
    outer loop
      vertex   -1.771597e+000 -4.000003e+000 4.999682e-002
      vertex   -2.521597e+000 -4.000003e+000 -5.000318e-002
      vertex   -1.771597e+000 -4.000003e+000 -5.000318e-002
    endloop
  endfacet
  facet normal 0.000000e+000 1.000000e+000 0.000000e+000
    outer loop
      vertex   -1.771597e+000 3.999997e+000 4.999682e-002
      vertex   -1.771597e+000 3.999997e+000 -5.000318e-002
      vertex   -2.521597e+000 3.999997e+000 4.999682e-002
    endloop
  endfacet
  facet normal 0.000000e+000 1.000000e+000 0.000000e+000
    outer loop
      vertex   -2.521597e+000 3.999997e+000 4.999682e-002
      vertex   -1.771597e+000 3.999997e+000 -5.000318e-002
      vertex   -2.521597e+000 3.999997e+000 -5.000318e-002
    endloop
  endfacet
endsolid
